<?xml version="1.0" encoding="UTF-8"?>
<svg id="Layer_2" data-name="Layer 2" xmlns="http://www.w3.org/2000/svg" viewBox="0 0 500 500">
  <defs>
    <style>
      .cls-1 {
        fill: #1aa36d;
      }
    </style>
  </defs>
  <g id="Design">
    <path class="cls-1" d="m489.87,240.21h-110.51c-11.1,0-20.7-7.55-23.54-18.28-.04-.16-.08-.31-.12-.47-2.89-10.74,1.6-22.1,11.24-27.66l95.7-55.25c4.52-2.61,6.49-8.29,4.18-12.97-2.53-5.13-8.82-6.97-13.69-4.16l-96.01,55.43c-9.62,5.56-21.71,3.8-29.55-4.08-.11-.11-.23-.23-.34-.34-7.87-7.84-9.63-19.92-4.08-29.55l55.43-96.01c2.81-4.87.96-11.15-4.16-13.69-4.68-2.31-10.36-.33-12.97,4.18l-55.25,95.7c-5.56,9.63-16.92,14.13-27.66,11.24-.16-.04-.31-.08-.47-.12-10.73-2.84-18.28-12.44-18.28-23.54V10.13c0-5.22-3.94-9.77-9.14-10.11-5.7-.37-10.45,4.15-10.45,9.77v110.85c0,11.1-7.55,20.7-18.28,23.54-.16.04-.31.08-.47.12-10.74,2.89-22.1-1.6-27.66-11.24l-55.42-95.99c-2.7-4.68-8.69-6.29-13.38-3.58-4.68,2.7-6.29,8.69-3.58,13.38l55.43,96.01c5.56,9.62,3.8,21.71-4.08,29.55-.11.11-.23.23-.34.34-7.84,7.87-19.92,9.63-29.55,4.08l-96.01-55.43c-4.87-2.81-11.15-.97-13.69,4.16-2.31,4.68-.33,10.37,4.18,12.97l95.7,55.25c9.63,5.56,14.13,16.92,11.24,27.66-.04.16-.08.31-.12.47-2.84,10.73-12.44,18.28-23.54,18.28H10.13c-5.22,0-9.77,3.94-10.11,9.14-.37,5.7,4.15,10.45,9.77,10.45h110.85c11.1,0,20.7,7.55,23.54,18.28.04.16.08.31.12.47,2.89,10.74-1.6,22.1-11.24,27.66l-95.7,55.25c-4.66,2.69-6.57,8.87-3.89,13.54,1.81,3.15,5.11,4.91,8.5,4.91,1.66,0,3.35-.42,4.89-1.31l96.01-55.43c9.62-5.56,21.71-3.8,29.55,4.08.11.11.23.23.34.34,7.87,7.84,9.63,19.93,4.08,29.55l-55.43,96.01c-2.7,4.68-1.1,10.67,3.58,13.38,1.54.89,3.23,1.31,4.89,1.31,3.38,0,6.68-1.76,8.49-4.9l55.42-95.99c5.56-9.63,16.92-14.13,27.66-11.24.16.04.31.08.47.12,10.73,2.84,18.28,12.44,18.28,23.54v110.51c0,5.22,3.94,9.77,9.14,10.11,5.7.37,10.45-4.15,10.45-9.77v-110.85c0-11.1,7.55-20.7,18.28-23.54.16-.04.31-.08.47-.12,10.74-2.89,22.1,1.6,27.66,11.24l55.42,95.99c1.81,3.14,5.11,4.9,8.49,4.9,1.66,0,3.35-.42,4.89-1.31,4.68-2.7,6.29-8.69,3.58-13.38l-55.43-96.01c-5.56-9.62-3.8-21.71,4.08-29.55.11-.11.23-.23.34-.34,7.84-7.87,19.92-9.63,29.55-4.08l96.01,55.43c1.54.89,3.23,1.31,4.89,1.31,3.39,0,6.69-1.76,8.5-4.91,2.68-4.66.77-10.84-3.89-13.54l-95.7-55.25c-9.63-5.56-14.13-16.92-11.24-27.66.04-.16.08-.31.12-.47,2.84-10.73,12.44-18.28,23.54-18.28h110.85c5.62,0,10.14-4.74,9.77-10.45-.34-5.21-4.89-9.14-10.11-9.14Z"/>
  </g>
</svg>