<?xml version="1.0" standalone="no"?>
<!DOCTYPE svg PUBLIC "-//W3C//DTD SVG 20010904//EN"
 "http://www.w3.org/TR/2001/REC-SVG-20010904/DTD/svg10.dtd">
<svg version="1.0" xmlns="http://www.w3.org/2000/svg"
 width="1000.000000pt" height="1000.000000pt" viewBox="0 0 1000.000000 1000.000000"
 preserveAspectRatio="xMidYMid meet">
<metadata>
Created by potrace 1.14, written by Peter Selinger 2001-2017
</metadata>
<g transform="translate(0.000000,1000.000000) scale(0.100000,-0.100000)"
fill="#000000" stroke="none">
<path d="M7282 9329 c-18 -5 -139 -83 -269 -173 -404 -279 -1077 -695 -1398
-864 -110 -57 -218 -117 -241 -133 -53 -36 -102 -92 -110 -126 -14 -54 48
-173 176 -337 156 -200 304 -465 439 -786 34 -80 67 -154 73 -165 60 -100 72
-132 72 -180 -2 -87 -52 -155 -164 -223 -19 -11 -98 -46 -174 -77 -77 -31
-225 -96 -330 -144 -105 -49 -306 -139 -446 -201 -647 -285 -790 -349 -1010
-450 -301 -138 -335 -148 -406 -114 -30 15 -47 44 -178 308 -79 160 -179 350
-222 421 -166 275 -353 514 -410 526 -33 6 -132 -4 -193 -21 -58 -15 -845
-469 -1314 -757 -474 -291 -1082 -697 -1133 -757 -18 -21 -36 -54 -40 -71 -7
-38 15 -73 161 -255 50 -63 123 -158 160 -210 38 -52 106 -147 152 -210 56
-77 112 -172 169 -287 99 -199 127 -233 199 -233 71 0 123 26 395 197 531 332
1010 613 1535 898 465 253 559 291 653 266 80 -21 106 -58 117 -166 4 -38 20
-111 36 -160 39 -124 88 -333 150 -640 33 -166 66 -299 90 -368 49 -137 51
-194 11 -258 -47 -74 -146 -137 -537 -344 -492 -261 -1257 -717 -1532 -915
-93 -67 -155 -149 -156 -206 -2 -75 234 -527 428 -819 189 -286 446 -604 508
-629 43 -18 106 -20 159 -6 21 6 160 93 310 193 452 303 899 581 1294 805 392
223 421 246 431 336 5 41 1 49 -89 177 -243 348 -401 620 -518 893 -23 53 -60
129 -84 169 -68 116 -81 163 -66 234 23 103 95 165 279 239 63 25 218 93 345
151 127 58 452 204 721 325 270 121 607 273 750 338 267 122 336 146 391 135
71 -13 98 -54 204 -311 93 -223 267 -522 445 -759 120 -161 144 -185 190 -195
37 -8 130 -1 204 16 93 22 1181 660 1811 1062 475 303 640 428 669 505 25 64
17 79 -108 224 -233 272 -443 573 -583 839 -69 131 -90 149 -169 142 -55 -6
-85 -22 -699 -391 -578 -348 -842 -499 -1154 -662 -72 -37 -152 -81 -180 -97
-111 -66 -371 -190 -428 -204 -128 -33 -197 15 -212 151 -4 33 -25 124 -46
203 -54 196 -146 563 -225 891 -74 312 -74 306 0 389 54 60 109 93 436 263
285 148 616 336 926 525 347 212 737 465 760 493 44 53 83 137 83 182 0 92
-288 592 -509 883 -42 56 -95 128 -118 161 -22 33 -51 69 -63 80 -12 11 -49
59 -80 106 -70 103 -111 146 -165 170 -43 20 -119 23 -173 8z"/>
</g>
</svg>
